<?xml version="1.0" encoding="UTF-8"?>
<svg version="1.1" xmlns="http://www.w3.org/2000/svg" width="1024" height="1024">
<path d="M0 0 C337.92 0 675.84 0 1024 0 C1024 337.92 1024 675.84 1024 1024 C686.08 1024 348.16 1024 0 1024 C0 686.08 0 348.16 0 0 Z " fill="#0E0E0E" transform="translate(0,0)"/>
<path d="M0 0 C337.92 0 675.84 0 1024 0 C1024 337.92 1024 675.84 1024 1024 C686.08 1024 348.16 1024 0 1024 C0 686.08 0 348.16 0 0 Z M178 65 C176.67337051 65.56035399 175.34652795 66.12020368 174.01953125 66.6796875 C149.40852215 77.18577663 128.97248863 91.12201249 110 110 C109.49774902 110.49822266 108.99549805 110.99644531 108.47802734 111.50976562 C95.31294915 124.75099432 85.51699476 140.4850622 77 157 C76.66097656 157.65210449 76.32195312 158.30420898 75.97265625 158.97607422 C71.34433888 167.99339335 68.14170942 177.12515941 65.55859375 186.91650391 C65.02833894 188.89429873 64.45288458 190.8598125 63.875 192.82421875 C61.74998637 200.42583001 60.56198801 207.78822368 59.90301228 215.63744164 C59.81791132 216.64264981 59.73281037 217.64785799 59.64513059 218.68352702 C58.81723199 229.18560362 58.71762806 239.64701895 58.73930359 250.17593384 C58.73627345 252.3050911 58.7323797 254.43424728 58.72771102 256.56340158 C58.71753389 262.34272334 58.7195862 268.12198235 58.72389162 273.90130901 C58.72637765 280.16176693 58.71732175 286.42221046 58.70985413 292.68266296 C58.69715843 304.91816005 58.69530115 317.1536282 58.69765439 329.38912942 C58.69949416 339.3388224 58.69771318 349.28850896 58.69342995 359.23820114 C58.69282752 360.67267749 58.69222632 362.10715385 58.69162634 363.5416302 C58.690719 365.70376043 58.68981033 367.86589066 58.68889399 370.02802088 C58.68047829 390.09999815 58.67611939 410.17197301 58.68030071 430.2439518 C58.68045709 430.99887688 58.68061346 431.75380196 58.68077458 432.53160356 C58.68158025 436.35703021 58.68242602 440.18245686 58.68328788 444.0078835 C58.68345897 444.76749847 58.68363006 445.52711344 58.68380633 446.30974704 C58.68415299 447.84586618 58.68450152 449.38198533 58.68485192 450.91810447 C58.69021082 474.82790454 58.68226821 498.73766774 58.66381836 522.64746094 C58.64306953 549.56750789 58.63238077 576.48753202 58.63639385 603.40758741 C58.63678914 606.28153507 58.6371507 609.15548273 58.63749123 612.02943039 C58.63758196 612.7369675 58.63767269 613.4445046 58.63776617 614.17348223 C58.63892833 624.817921 58.63231333 635.46233658 58.62167931 646.10676956 C58.60959081 658.21877189 58.60838706 670.33070943 58.62046947 682.44271709 C58.62634075 688.61447592 58.62750604 694.78613554 58.61546707 700.95788765 C58.60455017 706.62042619 58.6077801 712.28278335 58.62172876 717.94531362 C58.62435969 719.98065244 58.62206034 722.01600575 58.61399289 724.05133028 C58.55099287 741.14821182 60.12101097 757.98964712 64.25 774.625 C64.56578003 775.91071899 64.56578003 775.91071899 64.88793945 777.22241211 C73.13141001 809.49920344 90.12923662 839.73937604 114 863 C119 868 119 868 120.62890625 869.734375 C132.04392807 881.64984663 145.7980269 889.85168535 160 898 C160.77400146 898.44907715 161.54800293 898.8981543 162.34545898 899.36083984 C166.99027659 902.01063776 171.54150354 904.15704822 176.5625 906 C177.57352783 906.3717334 177.57352783 906.3717334 178.60498047 906.75097656 C184.83256406 909.00795317 191.1387684 910.99988525 197.4765625 912.921875 C199.65948049 913.58981887 201.83296183 914.29072001 203.98828125 915.04296875 C213.59064926 918.09430489 223.74099785 919.16364409 233.7667551 919.5814867 C234.67504652 919.62163497 235.58333793 919.66178323 236.51915333 919.70314812 C246.40238882 920.10735528 256.27944387 920.14247246 266.16941833 920.13371277 C268.21363986 920.13558661 270.25786103 920.13788957 272.30208164 920.14057809 C277.85594496 920.14663129 283.40979308 920.14657026 288.96365893 920.14538372 C294.97808408 920.14517806 300.99250456 920.15071392 307.00692749 920.15544128 C318.76443087 920.16371174 330.52193048 920.16650747 342.27943616 920.16705366 C351.84158082 920.16751495 361.40372386 920.16958231 370.965868 920.17275429 C373.72805327 920.17365195 376.49023855 920.17454177 379.25242382 920.17542917 C379.93928486 920.17565021 380.62614589 920.17587126 381.3338209 920.17609901 C400.62416321 920.18224353 419.91450496 920.18620053 439.20484829 920.18575573 C439.93052298 920.18574015 440.65619767 920.18572457 441.4038625 920.18570852 C445.08109185 920.18562543 448.75832121 920.18552639 452.43555056 920.18542381 C453.16574022 920.18540387 453.89592988 920.18538392 454.64824649 920.18536337 C456.12486224 920.18532294 457.60147799 920.18528114 459.07809374 920.18523798 C482.05442885 920.18462516 505.03074919 920.19213706 528.00708008 920.20581055 C553.87566078 920.22119925 579.74423178 920.22977518 605.61281735 920.22884732 C608.37531698 920.2287727 611.13781661 920.22872399 613.90031624 920.22869301 C614.58041591 920.22868135 615.26051559 920.2286697 615.96122434 920.22865769 C626.86174371 920.22862704 637.76225015 920.23498721 648.66276569 920.24362527 C659.6307798 920.25213669 670.59877751 920.2528941 681.56679349 920.24651595 C687.49763726 920.24326362 693.42843463 920.24314737 699.35927391 920.2518692 C704.80294287 920.25979189 710.24652908 920.25824461 715.69019616 920.24958507 C717.64485984 920.24806273 719.59952987 920.24981759 721.55418604 920.25544515 C738.97731227 920.30222974 756.72446819 919.76539417 773.75 915.75 C775.16829102 915.42684814 775.16829102 915.42684814 776.61523438 915.09716797 C791.09966924 911.68576656 804.7730772 906.80908703 818 900 C818.70624512 899.63922363 819.41249023 899.27844727 820.14013672 898.90673828 C831.63083333 892.96899814 841.88501132 886.03648877 852 878 C852.98484375 877.23945312 853.9696875 876.47890625 854.984375 875.6953125 C867.30991414 865.97024838 877.78758339 854.67792426 887 842 C887.41846191 841.42588379 887.83692383 840.85176758 888.26806641 840.26025391 C898.85314624 825.53695715 907.59340289 809.32883689 913 792 C913.54047363 790.45791468 914.08201406 788.91620251 914.625 787.375 C917.70033403 777.95894918 919.59041059 768.29531104 921.3515625 758.56640625 C921.70103216 756.64432314 922.06775726 754.72334431 922.53248769 752.82583064 C923.17249221 748.95738836 923.13836563 745.12924281 923.12863445 741.22030354 C923.13038749 740.33184249 923.13214053 739.44338145 923.13394669 738.52799734 C923.13861755 735.53560198 923.13613836 732.54325497 923.13371277 729.55085754 C923.13558022 727.38972534 923.13788065 725.22859347 923.14057809 723.06746215 C923.14671115 717.11627829 923.14656072 711.16510844 923.14538372 705.21392214 C923.14518008 698.79983402 923.1506951 692.38575045 923.15544128 685.97166443 C923.16375776 673.39782571 923.16650957 660.82399183 923.16705366 648.2501506 C923.16751317 638.02635692 923.16957132 627.80256477 923.17275429 617.57877159 C923.17365185 614.63594411 923.17454166 611.69311663 923.17542917 608.75028914 C923.17565021 608.01867283 923.17587126 607.28705652 923.17609901 606.53327002 C923.1822551 585.94761713 923.18619941 565.36196477 923.18575573 544.77631092 C923.18574015 543.99991044 923.18572457 543.22350995 923.18570852 542.42358218 C923.18562541 538.48849472 923.18552637 534.55340725 923.18542381 530.61831979 C923.18540387 529.83680677 923.18538392 529.05529376 923.18536337 528.25009853 C923.18532294 526.66968461 923.18528114 525.08927069 923.18523798 523.50885676 C923.18462582 498.94413101 923.19212007 474.37941907 923.20581055 449.81469727 C923.22118878 422.21032188 923.22977563 394.60595558 923.22884732 367.00157565 C923.2287727 364.05466155 923.22872399 361.10774746 923.22869301 358.16083336 C923.22868135 357.43524232 923.2286697 356.70965129 923.22865769 355.96207264 C923.22862698 344.30857916 923.23500065 332.65509771 923.24362527 321.0016078 C923.25212444 309.27444889 923.25290337 297.54730896 923.24651595 285.82014862 C923.24325624 279.4727079 923.24317413 273.12531056 923.2518692 266.77787399 C923.25975989 260.95752502 923.25827657 255.13725367 923.24958507 249.31690653 C923.24805567 247.22051777 923.24984491 245.12412314 923.25544515 243.02774129 C923.37551598 194.85781723 909.59649137 148.85372462 875.49609375 113.63671875 C873 111 873 111 871.28515625 108.64453125 C870.86105469 108.10183594 870.43695312 107.55914062 870 107 C869.34 107 868.68 107 868 107 C868 106.34 868 105.68 868 105 C867.34 105 866.68 105 866 105 C866 104.34 866 103.68 866 103 C863.0118832 100.21775739 859.77304991 97.74192416 856.56005859 95.22460938 C855.13166858 94.10335674 853.71556202 92.96650142 852.30078125 91.828125 C838.72268012 81.21357519 823.93247099 72.75186644 807.80908203 66.70410156 C805.29970512 65.72744259 802.88059415 64.56836454 800.4375 63.4375 C794.65874271 61.05336789 788.72267073 59.40391157 782.6875 57.8125 C781.78249756 57.56234131 780.87749512 57.31218262 779.94506836 57.05444336 C762.07051324 52.55654315 743.10684231 52.70140992 724.78851318 52.73257446 C722.65538221 52.72882594 720.5222526 52.7242197 718.38912511 52.71884382 C712.59858696 52.70674744 706.80810715 52.70685826 701.01755929 52.70923257 C694.74471436 52.70964415 688.4718873 52.69856958 682.1990509 52.68911743 C669.93748071 52.67258147 657.67593367 52.66698524 645.41435376 52.66589268 C635.43992177 52.66496974 625.46549596 52.66083321 615.49106598 52.65449142 C612.60871928 52.65269606 609.72637257 52.65091643 606.84402585 52.64914167 C605.76887472 52.64847852 605.76887472 52.64847852 604.67200337 52.64780198 C584.54287564 52.63551373 564.41375004 52.62759884 544.28461838 52.62848854 C543.14890914 52.62853528 543.14890914 52.62853528 541.99025629 52.62858296 C538.15368431 52.62874915 534.31711234 52.62894722 530.48054036 52.62915237 C529.33781987 52.62921221 529.33781987 52.62921221 528.17201411 52.62927325 C526.6314464 52.62935413 525.09087869 52.62943772 523.55031097 52.62952404 C499.58673903 52.63074927 475.62322372 52.61573296 451.65966797 52.58837891 C424.67144229 52.55758414 397.68325381 52.54045073 370.69500947 52.54230535 C367.81140534 52.54245459 364.92780121 52.54255202 362.04419708 52.54261398 C361.33429821 52.54263729 360.62439935 52.5426606 359.89298839 52.54268462 C348.5267743 52.54274586 337.16060988 52.53003869 325.79441051 52.51274945 C314.35156205 52.49570475 302.90881064 52.49422773 291.46595159 52.5069681 C285.28126799 52.51346203 279.09676229 52.51374517 272.91209602 52.4962616 C224.40565855 52.08584038 224.40565855 52.08584038 178 65 Z " fill="#20201F" transform="translate(0,0)"/>
<path d="M0 0 C136 0 136 0 150 4 C152.37390058 4.62916296 154.74893984 5.25404259 157.125 5.875 C159.11738591 6.41016126 161.10872113 6.94904117 163.09960938 7.48974609 C164.81793209 7.95111486 166.5415219 8.39275618 168.265625 8.83203125 C201.22180801 17.8991218 229.86283363 44.58811649 246.6875 73.625 C251.86773516 83.00536386 255.77235143 92.79360575 259 103 C259.30631348 103.96196289 259.61262695 104.92392578 259.92822266 105.91503906 C264.88900429 122.37593629 265.53300357 138.36046204 265.5 155.4375 C265.49863037 156.45841736 265.49726074 157.47933472 265.49584961 158.53118896 C265.43508133 172.26509667 264.79818213 185.33257284 261.0625 198.625 C259.62221091 203.72816187 259.62221091 203.72816187 258.3203125 208.8671875 C252.86211169 231.57599827 238.08437245 252.59578327 222 269 C221.53609863 269.47469727 221.07219727 269.94939453 220.59423828 270.43847656 C196.95249092 294.25303168 162.73069674 305.72693033 130 309 C87.1 309 44.2 309 0 309 C0 207.03 0 105.06 0 0 Z " fill="#EAEAEA" transform="translate(512,315)"/>
<path d="M0 0 C170.38188277 0 170.38188277 0 200 25 C200.72574219 25.61230469 201.45148438 26.22460938 202.19921875 26.85546875 C214.78591891 38.45303726 222.30819592 54.85078593 223.13916016 71.84619141 C223.86489972 94.76597635 220.89293611 112.76606085 204.8125 129.9375 C196.72752962 137.55690326 184.42135171 146 173 146 C173 146.66 173 147.32 173 148 C173.61746094 148.03738281 174.23492187 148.07476562 174.87109375 148.11328125 C189.71064748 149.26521008 203.94626277 156.09391855 215 166 C215.82113281 166.71671875 216.64226562 167.4334375 217.48828125 168.171875 C227.92773011 177.86678047 233.53064032 189.2401667 237 203 C237.17362061 203.58998779 237.34724121 204.17997559 237.52612305 204.7878418 C240.85079365 220.30810986 238.94827537 238.38718477 233 253 C232.51660156 254.30324219 232.51660156 254.30324219 232.0234375 255.6328125 C223.76128551 276.25227008 206.94710648 290.30966826 187 299 C179.10726281 302.3366083 171.24866212 304.54349673 162.875 306.25 C162.07642578 306.41322754 161.27785156 306.57645508 160.45507812 306.74462891 C107.91463625 316.78032356 53.4903094 309 0 309 C0 207.03 0 105.06 0 0 Z " fill="#EBEAEA" transform="translate(232,315)"/>
<path d="M0 0 C72.918601 0 72.918601 0 91.5 7.8125 C92.75949463 8.33179077 92.75949463 8.33179077 94.04443359 8.86157227 C100.30347331 11.52479914 105.80418667 14.5666158 111 19 C111.8353125 19.69996094 112.670625 20.39992188 113.53125 21.12109375 C133.73144763 38.67457874 144.83767139 61.42360703 148 88 C148.30058842 93.66959794 148.33956945 99.32362795 148.3125 105 C148.31100952 105.77146362 148.30951904 106.54292725 148.3079834 107.33776855 C148.26594061 119.45174 147.59168186 131.13237549 145 143 C144.87141602 143.65726074 144.74283203 144.31452148 144.61035156 144.99169922 C140.38602043 166.36595484 126.70410593 186.87183624 109.1875 199.6875 C96.65235105 208.04426597 83.48520764 212.67724641 68.58203125 214.60546875 C66.02097168 214.86160448 66.02097168 214.86160448 64 216 C42.88 216 21.76 216 0 216 C0 144.72 0 73.44 0 0 Z " fill="#0F0F0E" transform="translate(570,362)"/>
<path d="M0 0 C18.0675 -0.12375 18.0675 -0.12375 36.5 -0.25 C40.26986328 -0.28641602 44.03972656 -0.32283203 47.92382812 -0.36035156 C52.61230469 -0.37841797 52.61230469 -0.37841797 54.8236084 -0.3817749 C56.33212031 -0.3878223 57.84061586 -0.4016868 59.34899902 -0.42230225 C78.93894725 -0.67610039 97.29339451 3.14719804 111.9765625 16.84375 C120.79278628 25.9976164 122.39368762 38.01073744 122.27734375 50.265625 C121.39031182 62.20932253 116.44679886 71.88174231 108 80.1875 C102.38038386 84.96751305 95.85139788 87.4779145 89 90 C88.09636719 90.36351562 87.19273437 90.72703125 86.26171875 91.1015625 C76.26309681 93.85567393 65.46885409 93.13373132 55.17578125 93.09765625 C53.75728393 93.09618209 52.33878606 93.09516431 50.92028809 93.09460449 C45.71768365 93.08940652 40.51509093 93.07544547 35.3125 93.0625 C23.659375 93.041875 12.00625 93.02125 0 93 C0 62.31 0 31.62 0 0 Z " fill="#111110" transform="translate(289,487)"/>
<path d="M0 0 C11.055 -0.04125 22.11 -0.0825 33.5 -0.125 C36.97724609 -0.14320801 40.45449219 -0.16141602 44.03710938 -0.18017578 C48.31738281 -0.18920898 48.31738281 -0.18920898 50.32775879 -0.19088745 C51.71742029 -0.19393772 53.10707685 -0.20092806 54.4967041 -0.21115112 C61.91909743 -0.26297649 68.87476722 -0.30925558 76 2 C76.79148437 2.21140625 77.58296875 2.4228125 78.3984375 2.640625 C88.18796488 5.65874016 97.67691024 11.14268521 103.24609375 19.9765625 C108.08494715 29.15797665 108.32293814 37.79960903 108 48 C107.99355469 48.76828125 107.98710937 49.5365625 107.98046875 50.328125 C107.50574754 58.69728405 102.38694323 67.81637577 96.24609375 73.41015625 C91.22026993 76.96756546 85.62285255 79.53351528 80 82 C78.94675537 82.52150635 77.89351074 83.0430127 76.80834961 83.58032227 C70.05263018 86.07302191 62.56660236 85.3668217 55.46875 85.29296875 C54.04720411 85.28855054 52.62565332 85.28549454 51.20410156 85.28381348 C45.96932597 85.26817003 40.73465528 85.22628624 35.5 85.1875 C23.785 85.125625 12.07 85.06375 0 85 C0 56.95 0 28.9 0 0 Z " fill="#100F0F" transform="translate(290,360)"/>
<path d="M0 0 C-0.639375 0.28875 -1.27875 0.5775 -1.9375 0.875 C-4.15206079 1.82823451 -4.15206079 1.82823451 -5 4 C-4.34 4.33 -3.68 4.66 -3 5 C-5.64 4.67 -8.28 4.34 -11 4 C-11 3.34 -11 2.68 -11 2 C-9.54494642 1.47007308 -8.08581873 0.9513211 -6.625 0.4375 C-5.81289063 0.14746094 -5.00078125 -0.14257812 -4.1640625 -0.44140625 C-2 -1 -2 -1 0 0 Z " fill="#474847" transform="translate(416,459)"/>
</svg>
